<?xml version="1.0" encoding="utf-8"?>
<!-- Generator: Adobe Illustrator 15.1.0, SVG Export Plug-In . SVG Version: 6.00 Build 0)  -->
<!DOCTYPE svg PUBLIC "-//W3C//DTD SVG 1.1//EN" "http://www.w3.org/Graphics/SVG/1.1/DTD/svg11.dtd">
<svg version="1.1" id="Layer_1" xmlns="http://www.w3.org/2000/svg" xmlns:xlink="http://www.w3.org/1999/xlink" x="0px" y="0px"
	 width="624px" height="130px" viewBox="0 0 624 130" enable-background="new 0 0 624 130" xml:space="preserve">
<g>
	<path fill="#FFFFFF" d="M19.721,1.866v39.096c3.559-3.534,7.415-6.203,11.566-7.982c4.151-1.755,8.6-2.645,13.319-2.645
		c10.256,0,18.98,3.88,26.172,11.615c7.191,7.76,10.773,17.695,10.773,29.829c0,11.689-3.706,21.476-11.146,29.334
		c-7.413,7.884-16.21,11.812-26.392,11.812c-4.522,0-8.752-0.818-12.653-2.422s-7.785-4.226-11.64-7.883v8.377H0V1.866H19.721
		L19.721,1.866z M40.431,48.425c-6.204,0-11.372,2.128-15.446,6.351c-4.099,4.247-6.153,9.787-6.153,16.631
		c0,6.995,2.051,12.654,6.153,16.953c4.078,4.324,9.243,6.475,15.446,6.475c6.029,0,11.095-2.199,15.223-6.572
		c4.126-4.4,6.178-9.985,6.178-16.78c0-6.747-2.026-12.283-6.08-16.583C51.724,50.575,46.609,48.425,40.431,48.425L40.431,48.425z
		 M258.945,30.335c7.439,0,14.434,1.854,20.981,5.561c6.574,3.707,11.665,8.724,15.347,15.075
		c3.682,6.375,5.512,13.221,5.512,20.585c0,7.413-1.854,14.333-5.536,20.783c-3.708,6.45-8.748,11.491-15.124,15.125
		c-6.4,3.632-13.419,5.461-21.105,5.461c-11.318,0-20.984-4.007-28.963-12.011c-8.003-8.027-12.01-17.769-12.01-29.209
		c0-12.283,4.521-22.514,13.566-30.695C239.547,33.894,248.641,30.335,258.945,30.335L258.945,30.335z M259.242,48.87
		c-6.152,0-11.27,2.125-15.346,6.376c-4.078,4.275-6.129,9.712-6.129,16.359c0,6.821,2.025,12.357,6.055,16.583
		c4.027,4.226,9.143,6.352,15.346,6.352c6.179,0,11.318-2.15,15.445-6.426c4.104-4.275,6.154-9.786,6.154-16.509
		c0-6.746-2.027-12.207-6.055-16.433C270.684,50.971,265.52,48.87,259.242,48.87L259.242,48.87z M357.688,43.408L345.48,55.691
		c-4.943-4.943-9.441-7.414-13.494-7.414c-2.199,0-3.93,0.47-5.189,1.409s-1.879,2.1-1.879,3.484c0,1.063,0.396,2.027,1.188,2.916
		c0.789,0.891,2.768,2.102,5.906,3.658l7.215,3.608c7.613,3.732,12.852,7.562,15.693,11.443c2.842,3.903,4.25,8.451,4.25,13.689
		c0,6.97-2.57,12.803-7.709,17.448c-5.141,4.67-12.035,6.993-20.686,6.993c-11.467,0-19.744-4.473-26.59-13.443l11.268-13.246
		c2.324,2.694,5.041,4.893,8.18,6.549c3.115,1.656,5.881,2.496,8.305,2.496c2.594,0,4.719-0.618,6.301-1.878
		c1.607-1.261,2.396-2.694,2.396-4.325c0-3.039-2.865-6.006-8.623-8.871l-6.648-3.337c-12.752-6.4-19.127-14.407-19.127-24.021
		c0-6.204,2.396-11.517,7.191-15.916c4.793-4.398,10.922-6.598,18.385-6.598c5.117,0,9.91,1.137,14.434,3.385
		C350.742,35.97,354.549,39.207,357.688,43.408L357.688,43.408z M375.281,3.201h19.721v29.062h11.713v17.052h-11.713v61.683h-19.721
		V49.315h-10.084V32.263h10.084V3.201L375.281,3.201z"/>
	<path fill="#FC9C26" d="M413.342,4.535h20.832l26.764,75.622l27.283-75.622h20.758l-38.428,106.462h-19.547L413.342,4.535
		L413.342,4.535z M623.104,23.218l-14.211,13.493c-9.662-10.182-20.51-15.272-32.594-15.272c-10.184,0-18.783,3.485-25.752,10.429
		c-6.994,6.944-10.479,15.495-10.479,25.676c0,7.092,1.557,13.395,4.646,18.881c3.088,5.511,7.463,9.835,13.098,12.974
		c5.658,3.139,11.936,4.695,18.855,4.695c5.883,0,11.27-1.087,16.137-3.287c4.895-2.198,10.256-6.203,16.088-11.985l13.766,14.383
		c-7.857,7.686-15.297,13.023-22.291,15.989c-6.994,2.99-15,4.473-23.971,4.473c-16.559,0-30.125-5.239-40.678-15.742
		c-10.553-10.478-15.816-23.946-15.816-40.331c0-10.626,2.398-20.042,7.217-28.296c4.793-8.254,11.664-14.877,20.635-19.894
		c8.947-5.017,18.584-7.538,28.939-7.538c8.773,0,17.225,1.853,25.379,5.561C610.203,11.133,617.221,16.397,623.104,23.218
		L623.104,23.218z"/>
	<path fill-rule="evenodd" clip-rule="evenodd" fill="#FC9C26" d="M126.882,35.965c-10.839,7.511-17.306,19.859-17.306,33.046
		c0,22.207,17.996,40.203,40.203,40.203s40.203-17.996,40.203-40.203c0-13.181-6.461-25.525-17.293-33.036
		c-4.672-3.241-5.84-9.665-2.605-14.343c3.24-4.688,9.68-5.858,14.363-2.61c16.389,11.365,26.166,30.045,26.166,49.989
		c0,33.594-27.239,60.833-60.834,60.833s-60.834-27.238-60.834-60.833c0-19.953,9.786-38.639,26.186-50.003
		c4.682-3.245,11.121-2.075,14.36,2.612C132.726,26.299,131.557,32.725,126.882,35.965L126.882,35.965z"/>
	<path fill-rule="evenodd" clip-rule="evenodd" fill="#FC9C26" d="M149.779,0L149.779,0c5.361,0,9.747,4.385,9.747,9.746v56.917
		c0,5.36-4.386,9.746-9.746,9.746h-0.001c-5.36,0-9.746-4.386-9.746-9.746V9.746C140.033,4.385,144.419,0,149.779,0L149.779,0z"/>
</g>
</svg>
